<svg data-v-0dd9719b="" version="1.0" xmlns="http://www.w3.org/2000/svg" xmlns:xlink="http://www.w3.org/1999/xlink" width="100%" height="100%" viewBox="0 0 340.000000 250.000000" preserveAspectRatio="xMidYMid meet" color-interpolation-filters="sRGB" style="margin: auto;"> <rect data-v-0dd9719b="" x="0" y="0" width="100%" height="100%" fill="#fff" fill-opacity="1" class="background"></rect> <rect data-v-0dd9719b="" x="0" y="0" width="100%" height="100%" fill="url(#watermark)" fill-opacity="1" class="watermarklayer"></rect> <g data-v-0dd9719b="" fill="#333" class="icon-text-wrapper icon-svg-group iconsvg" transform="translate(47.88500213623047,90.35956954956055)"><g class="iconsvg-imagesvg" transform="translate(0,0)"><g><rect fill="#333" fill-opacity="0" stroke-width="2" x="0" y="0" width="59.99999999999999" height="69.28086462519052" class="image-rect"></rect> <svg x="0" y="0" width="59.99999999999999" height="69.28086462519052" filtersec="colorsb4896512611" class="image-svg-svg primary" style="overflow: visible;"><svg xmlns="http://www.w3.org/2000/svg" viewBox="-0.00006103515625 -0.000030517578125 501.01995849609375 578.52001953125"><defs><linearGradient id="ac5ac5637-7215-4538-a3c9-269ebd67e8d7" x1="888.19" y1="704.02" x2="1061.34" y2="379.35" gradientUnits="userSpaceOnUse"><stop offset="0" stop-color="#8f581a"></stop><stop offset="1" stop-color="#dd9a0f"></stop></linearGradient></defs><path d="M957.67 284.48L707.16 429.11v289.26L957.67 863l250.51-144.63V429.11zm219.39 162.6v235.35l-44.46-25.68v-184l-174.93-101-159.36 92-44.46-25.67 203.82-117.66zM738.29 549.2L1085.9 753l-50.9 29.41L738.29 612zm0-36.09V465l423.2 244.34-44.59 25.74zm363.18 125.67L1057 613.11v-96.72l-99.34-57.34-83.75 48.35-44.47-25.67 128.23-74 143.8 83zm-75.6-43.63L905 525.38 957.67 495l68.2 39.38zM738.29 700.4v-52.55l265.54 152.56-46.16 26.66z" transform="translate(-707.16 -284.48)" fill="url(#ac5ac5637-7215-4538-a3c9-269ebd67e8d7)"></path></svg></svg> <!----></g></g> <g transform="translate(67,22.625431060791016)"><g data-gra="path-name" fill-rule="" class="tp-name iconsvg-namesvg"><g transform="scale(1)"><g><path d="M2.39-23.02L5.53-23.02 5.53-2.77 17.23-2.77 17.23 0 2.39 0 2.39-23.02ZM35.47-8.55L35.47-23.02 38.62-23.02 38.62-8.18Q38.24 0.13 29.18 0.38L29.18 0.38Q20.75 0.13 20.38-7.67L20.38-7.67 20.38-23.02 23.52-23.02 23.52-8.55Q23.65-2.26 29.31-2.14L29.31-2.14Q35.47-2.26 35.47-8.55L35.47-8.55ZM62.64-16.23L62.64-16.23 59.62-16.23Q58.49-20.88 53.21-21.01L53.21-21.01Q45.91-20.63 45.66-11.7L45.66-11.7Q45.66-2.14 53.33-2.14L53.33-2.14Q58.62-2.26 59.87-8.55L59.87-8.55 62.89-8.55Q61.51 0.13 52.7 0.38L52.7 0.38Q42.64 0 42.39-11.57L42.39-11.57Q42.89-23.14 53.21-23.65L53.21-23.65Q61.38-23.4 62.64-16.23ZM73.33-11.57L69.69-8.18 69.69 0 66.54 0 66.54-23.02 69.69-23.02 69.69-11.82 80.88-23.02 85.28-23.02 75.6-13.71 85.53 0 81.38 0 73.33-11.57ZM106.54-23.02L97.86-9.31 97.86 0 94.72 0 94.72-9.31 86.04-23.02 89.69-23.02 96.23-11.95 102.89-23.02 106.54-23.02ZM135.09-16.35L135.09-16.35 132.2-16.35Q131.95-20.75 126.42-21.01L126.42-21.01Q121.26-20.88 121.26-16.98L121.26-16.98Q121.26-14.47 124.03-14.09L124.03-14.09 130.57-12.58Q135.72-11.32 135.72-6.29L135.72-6.29Q135.6 0.13 126.67 0.38L126.67 0.38Q121.76 0.38 119.75-1.64L119.75-1.64Q117.23-3.52 117.36-7.42L117.36-7.42 120.38-7.42Q120.5-2.14 126.67-2.01L126.67-2.01Q132.7-2.14 132.83-5.91L132.83-5.91Q133.33-9.06 127.8-10.06L127.8-10.06 123.02-11.07Q118.11-12.45 118.11-16.6L118.11-16.6Q118.49-23.4 126.16-23.65L126.16-23.65Q134.84-23.65 135.09-16.35ZM143.14-2.77L156.98-2.77 156.98 0 140 0 140-23.02 156.73-23.02 156.73-20.38 143.14-20.38 143.14-13.21 155.72-13.21 155.72-10.44 143.14-10.44 143.14-2.77ZM176.23 0L173.96-6.67 164.65-6.67 162.26 0 159.12 0 167.8-23.02 171.32-23.02 179.62 0 176.23 0ZM169.31-19.62L165.66-9.43 172.83-9.43 169.43-19.62 169.31-19.62Z" transform="translate(-2.390000104904175, 23.649999618530273)"></path></g> <!----> <!----> <!----> <!----> <!----> <!----> <!----></g></g> <!----></g></g><defs v-gra="od"></defs></svg>